<?xml version="1.0" standalone="no"?>
<!DOCTYPE svg PUBLIC "-//W3C//DTD SVG 20010904//EN"
 "http://www.w3.org/TR/2001/REC-SVG-20010904/DTD/svg10.dtd">
<svg version="1.0" xmlns="http://www.w3.org/2000/svg"
 width="512.000000pt" height="512.000000pt" viewBox="0 0 512.000000 512.000000"
 preserveAspectRatio="xMidYMid meet">

<g transform="translate(0.000000,512.000000) scale(0.100000,-0.100000)"
fill="#F5F0E1" stroke="none">
<path d="M785 3396 c-40 -17 -82 -67 -95 -114 -6 -24 -10 -307 -10 -804 l0
-768 170 0 170 0 0 562 0 563 258 -258 257 -257 258 257 257 258 0 -563 0
-562 170 0 170 0 0 782 c0 773 0 782 -21 825 -40 83 -145 117 -227 74 -20 -11
-165 -148 -322 -305 l-285 -286 -295 294 c-162 162 -308 300 -323 305 -38 15
-95 13 -132 -3z"/>
<path d="M3420 2848 l0 -563 -198 198 -197 197 -120 -120 -120 -120 350 -351
c194 -195 364 -357 382 -365 41 -18 95 -18 136 0 18 8 188 170 382 365 l350
351 -120 120 -120 120 -197 -197 -198 -198 0 563 0 562 -165 0 -165 0 0 -562z"/>
</g>
</svg>
