<?xml version="1.0" standalone="no"?>
<!DOCTYPE svg PUBLIC "-//W3C//DTD SVG 20010904//EN"
 "http://www.w3.org/TR/2001/REC-SVG-20010904/DTD/svg10.dtd">
<svg version="1.0" xmlns="http://www.w3.org/2000/svg"
 width="512.000000pt" height="512.000000pt" viewBox="0 0 512.000000 512.000000"
 preserveAspectRatio="xMidYMid meet">

<g transform="translate(0.000000,512.000000) scale(0.100000,-0.100000)"
fill="#324B32" stroke="none">
<path d="M1475 3799 c-104 -4 -242 -15 -305 -23 -63 -9 -121 -16 -127 -16 -10
0 -13 -248 -13 -1205 l0 -1205 215 0 215 0 0 458 0 457 175 -3 c96 -2 212 1
259 7 251 34 442 123 579 271 121 130 175 271 184 481 7 156 -10 246 -72 374
-122 253 -359 379 -763 405 -81 5 -149 9 -152 8 -3 -1 -90 -5 -195 -9z m387
-343 c269 -48 406 -258 342 -526 -35 -150 -134 -248 -304 -301 -65 -21 -96
-24 -230 -24 -85 0 -167 3 -182 8 l-28 7 0 410 c0 282 3 411 11 416 36 22 285
28 391 10z"/>
<path d="M3410 3139 c-239 -39 -431 -186 -489 -374 -89 -288 46 -517 386 -651
181 -72 217 -88 262 -118 109 -74 131 -199 50 -290 -46 -53 -111 -71 -249 -70
-130 1 -221 22 -354 79 -44 19 -82 33 -84 31 -5 -6 -82 -288 -82 -303 0 -16
133 -69 235 -93 188 -45 420 -45 583 0 217 60 371 204 413 386 18 82 14 211
-11 284 -58 175 -178 276 -454 385 -176 69 -239 104 -272 155 -23 34 -26 48
-22 98 8 116 73 163 234 170 111 5 212 -15 320 -63 31 -14 59 -24 61 -22 4 5
83 288 83 298 0 8 -87 46 -149 65 -123 38 -335 53 -461 33z"/>
</g>
</svg>
