<?xml version="1.0" standalone="no"?>
<!DOCTYPE svg PUBLIC "-//W3C//DTD SVG 20010904//EN"
 "http://www.w3.org/TR/2001/REC-SVG-20010904/DTD/svg10.dtd">
<svg version="1.0" xmlns="http://www.w3.org/2000/svg"
 width="512.000000pt" height="512.000000pt" viewBox="0 0 512.000000 512.000000"
 preserveAspectRatio="xMidYMid meet">

<g transform="translate(0.000000,512.000000) scale(0.100000,-0.100000)"
fill="#F5F0E1" stroke="none">
<path d="M2260 4523 c-567 -56 -1017 -193 -1405 -426 -437 -263 -724 -613
-823 -1006 -23 -93 -26 -126 -26 -271 -1 -149 2 -176 28 -275 88 -342 294
-626 638 -882 324 -241 789 -427 1258 -503 74 -12 145 -24 158 -26 l22 -4 0
-270 0 -270 435 0 435 0 0 269 0 269 53 7 c154 19 436 76 547 110 11 4 61 -82
190 -325 l175 -330 493 0 493 0 -12 23 c-15 27 -546 923 -565 953 -13 19 -9
23 49 64 361 253 592 562 683 915 26 99 29 126 29 275 0 149 -3 176 -29 275
-107 415 -401 763 -873 1033 -359 205 -789 335 -1278 387 -126 13 -570 19
-675 8z m1190 -687 c595 -79 995 -274 1209 -589 204 -300 213 -755 22 -1076
-80 -136 -262 -303 -416 -383 l-63 -32 -59 29 c-32 15 -98 43 -148 60 l-89 33
54 7 c82 10 223 60 301 106 175 102 321 296 376 499 25 91 25 329 0 420 -72
269 -262 443 -579 531 l-83 24 -932 3 -933 3 0 -916 0 -917 -32 7 c-103 22
-371 139 -507 221 -221 134 -407 326 -492 507 -67 143 -87 326 -53 480 22 102
100 257 178 353 155 193 427 372 740 489 188 70 484 134 731 159 105 10 656
-2 775 -18z m208 -1029 c67 -44 96 -97 100 -183 5 -88 -9 -134 -57 -187 -70
-78 -87 -82 -418 -85 l-293 -3 0 246 0 246 313 -3 314 -3 41 -28z m-358 -1119
c34 -23 120 -121 120 -137 0 -10 -102 -19 -297 -28 l-143 -6 0 96 0 97 144 0
c132 0 146 -2 176 -22z"/>
</g>
</svg>
