<?xml version="1.0"?>
<svg width="48" height="60" xmlns="http://www.w3.org/2000/svg" xmlns:svg="http://www.w3.org/2000/svg" data-name="Layer 1" fill="#FAAF14">
 <defs>
  <style>.cls-1 {
        stroke-width: 0px;
      }</style>
 </defs>
 <g class="layer">
  <title>Layer 1</title>
  <path class="cls-1" d="m34.22,27.54c-9.95,-2.25 -11.5,-3.79 -13.74,-13.75c-0.11,-0.45 -0.51,-0.78 -0.98,-0.78s-0.87,0.33 -0.98,0.78c-2.24,9.96 -3.79,11.5 -13.74,13.75c-0.46,0.1 -0.78,0.51 -0.78,0.97s0.32,0.88 0.78,0.98c9.95,2.25 11.5,3.79 13.74,13.74c0.11,0.46 0.51,0.78 0.98,0.78s0.87,-0.32 0.98,-0.78c2.24,-9.95 3.79,-11.49 13.74,-13.74c0.46,-0.1 0.78,-0.51 0.78,-0.98s-0.32,-0.87 -0.78,-0.97z" id="svg_1"/>
  <path class="cls-1" d="m43.22,12.04c-5.29,-1.2 -6.03,-1.94 -7.23,-7.23c-0.1,-0.46 -0.51,-0.78 -0.97,-0.78s-0.88,0.32 -0.98,0.78c-1.2,5.29 -1.94,6.03 -7.23,7.23c-0.46,0.1 -0.78,0.51 -0.78,0.98s0.32,0.87 0.78,0.97c5.29,1.2 6.03,1.94 7.23,7.23c0.1,0.46 0.51,0.78 0.98,0.78s0.87,-0.32 0.97,-0.78c1.2,-5.29 1.94,-6.03 7.23,-7.23c0.46,-0.1 0.78,-0.51 0.78,-0.97s-0.32,-0.88 -0.78,-0.98z" id="svg_2"/>
 </g>
</svg>