<?xml version="1.0" standalone="no"?>
<!DOCTYPE svg PUBLIC "-//W3C//DTD SVG 20010904//EN"
 "http://www.w3.org/TR/2001/REC-SVG-20010904/DTD/svg10.dtd">
<svg version="1.0" xmlns="http://www.w3.org/2000/svg"
 width="424.000000pt" height="424.000000pt" viewBox="0 0 424.000000 424.000000"
 preserveAspectRatio="xMidYMid meet">

<g transform="translate(0.000000,424.000000) scale(0.100000,-0.100000)"
fill="#F5F0E1" stroke="none">
<path d="M936 3590 c-372 -34 -656 -156 -656 -283 0 -286 1100 -405 1588 -171
390 187 22 442 -661 459 -95 2 -217 0 -271 -5z"/>
<path d="M280 2803 c0 -227 3 -237 93 -296 388 -255 1525 -193 1643 90 10 23
14 85 14 218 0 102 -1 185 -3 185 -2 0 -34 -15 -73 -34 -210 -103 -534 -155
-889 -143 -290 10 -532 57 -700 136 l-85 40 0 -196z m435 -118 c33 -32 33 -78
0 -110 -51 -52 -145 -16 -145 55 0 71 94 107 145 55z"/>
<path d="M1995 2318 c-92 -56 -308 -118 -505 -144 -152 -20 -490 -23 -635 -5
-212 26 -387 72 -507 132 -32 16 -60 29 -63 29 -4 0 -5 -92 -3 -205 l3 -204
40 -41 c70 -72 219 -132 429 -171 85 -16 166 -22 348 -26 130 -3 248 -3 261 1
15 3 38 26 57 56 95 149 259 218 488 206 85 -4 114 -2 118 7 2 7 3 96 2 198
l-3 186 -30 -19z m-1284 -297 c37 -37 38 -78 4 -115 -45 -49 -125 -26 -141 41
-12 47 36 102 89 103 10 0 32 -13 48 -29z"/>
<path d="M1705 1770 c-122 -39 -190 -130 -189 -255 0 -138 67 -209 261 -279
145 -52 183 -81 183 -144 0 -46 -35 -79 -95 -88 -71 -10 -171 1 -246 28 l-65
24 -27 -78 c-15 -44 -25 -83 -22 -88 9 -14 126 -49 205 -60 85 -12 189 -6 269
16 127 36 191 119 191 248 0 169 -53 225 -301 320 -114 43 -142 68 -137 121 2
28 11 44 31 59 40 30 169 29 247 -2 30 -12 57 -18 61 -14 4 4 19 40 33 80 l26
73 -38 16 c-112 48 -278 57 -387 23z"/>
<path d="M2620 1774 c-152 -41 -270 -168 -306 -331 -20 -93 -15 -242 12 -323
45 -135 157 -241 293 -276 67 -18 70 -20 86 -60 35 -93 131 -155 281 -181 129
-22 134 -20 156 57 10 36 18 68 18 72 0 4 -26 9 -57 13 -113 13 -203 49 -203
83 0 4 30 21 68 37 119 51 208 162 241 300 20 79 15 239 -8 315 -47 150 -156
257 -305 296 -66 18 -206 17 -276 -2z m221 -175 c56 -17 104 -62 136 -127 25
-51 28 -67 28 -162 0 -88 -4 -113 -23 -155 -47 -101 -114 -145 -222 -145 -159
0 -245 107 -244 305 0 136 45 224 136 269 57 29 125 34 189 15z"/>
<path d="M3400 1305 l0 -465 310 0 310 0 0 90 0 90 -205 0 -205 0 0 375 0 375
-105 0 -105 0 0 -465z"/>
<path d="M280 1474 c0 -152 3 -201 15 -223 46 -89 222 -167 475 -210 137 -24
433 -38 541 -27 l65 7 40 112 40 111 -33 49 c-33 49 -63 132 -63 174 l0 23
-203 0 c-358 0 -656 55 -834 155 l-43 24 0 -195z m413 -105 c27 -12 47 -47 47
-80 0 -30 -53 -79 -85 -79 -34 0 -85 50 -85 83 0 35 46 87 75 87 13 0 35 -5
48 -11z"/>
</g>
</svg>
