<svg version="1.1" id="Layer_1" xmlns="http://www.w3.org/2000/svg" xmlns:xlink="http://www.w3.org/1999/xlink" x="0px" y="0px"
	 width="100%" viewBox="0 0 1254 1254" enable-background="new 0 0 1254 1254" xml:space="preserve">
<path fill="#000000" opacity="0.000000" stroke="none" 
	d="
M661.000000,1255.000000 
	C440.666656,1255.000000 220.833328,1255.000000 1.000000,1255.000000 
	C1.000000,837.000000 1.000000,419.000000 1.000000,1.000000 
	C419.000000,1.000000 837.000000,1.000000 1255.000000,1.000000 
	C1255.000000,419.000000 1255.000000,837.000000 1255.000000,1255.000000 
	C1057.166626,1255.000000 859.333313,1255.000000 661.000000,1255.000000 
M216.160263,673.250427 
	C215.938110,673.010254 215.715958,672.770142 215.493774,672.530029 
	C215.595764,673.080444 215.697754,673.630920 215.726776,675.005493 
	C215.923294,676.152832 216.071701,677.310913 216.323257,678.446045 
	C228.397568,732.928528 227.962463,787.190552 213.089462,841.105835 
	C209.391541,854.510925 204.853775,867.684265 200.610764,881.256226 
	C231.878143,902.561768 257.052948,929.614563 274.350189,964.391296 
	C278.410126,953.775574 282.246704,944.193176 285.751129,934.490845 
	C293.951477,911.787048 303.200134,889.372253 309.846344,866.215393 
	C323.608490,818.265015 324.874390,768.982239 322.555115,719.485352 
	C320.781067,681.624634 315.889679,644.187073 308.831512,606.959351 
	C305.638245,590.116577 305.689636,573.128052 311.770660,556.650208 
	C314.439545,549.418274 319.030823,543.888794 326.141571,540.829895 
	C338.893890,535.344299 352.048004,534.507019 365.098419,539.295532 
	C368.271881,540.459900 371.228241,543.733398 372.978394,546.785950 
	C374.414612,549.290894 375.668732,550.403992 378.402405,550.799316 
	C386.643707,551.990967 394.876312,553.293640 403.055115,554.852905 
	C412.093597,556.576111 413.547577,560.813599 407.912872,568.275146 
	C407.212219,569.202942 406.349670,570.007019 405.621857,570.916138 
	C397.478302,581.088745 385.344574,584.521057 374.096497,589.339661 
	C371.001343,590.665588 369.441162,592.302734 368.586365,595.517090 
	C363.602295,614.259583 368.696808,630.482849 381.112518,644.589417 
	C389.120575,653.688049 394.856873,663.658447 397.208344,675.625610 
	C400.131714,690.503418 400.447571,705.502441 398.240021,720.363892 
	C396.285461,733.522217 395.839111,746.007019 404.114624,757.343750 
	C404.406128,757.743103 404.568665,758.234131 404.820129,758.665588 
	C413.239960,773.112793 412.741730,788.569702 409.920868,804.265137 
	C409.633209,805.865540 408.865906,807.379822 407.825562,810.348145 
	C399.859192,791.681335 400.856293,770.975037 385.214355,757.504456 
	C385.150818,757.849670 384.968414,758.205688 385.051025,758.482727 
	C391.115845,778.819824 394.567932,799.606506 396.465576,820.733521 
	C399.952850,859.557861 395.203491,897.202393 380.735382,933.434753 
	C375.921204,945.491028 372.747284,957.803101 372.197021,970.711487 
	C371.714966,982.020081 372.983429,993.168640 376.703156,1004.205750 
	C416.341705,996.430725 455.834473,992.319763 495.388062,993.289856 
	C499.636688,979.894714 503.006042,966.767456 507.922699,954.247925 
	C521.743103,919.055908 535.876953,883.978699 550.477661,849.103394 
	C577.110840,785.487427 590.790833,719.092651 592.745789,650.373779 
	C593.701782,616.768799 593.055725,583.079956 591.982239,549.465820 
	C590.806458,512.648621 586.169922,476.116913 580.141785,439.763275 
	C576.031982,414.978424 571.608459,390.199341 568.878540,365.247742 
	C566.971619,347.817535 568.948853,330.278290 576.013489,313.774109 
	C581.107056,301.874786 589.292969,293.191223 601.738159,288.818420 
	C617.432556,283.303986 633.392517,282.499756 649.438110,286.592987 
	C656.920166,288.501587 664.341614,291.402191 666.775330,299.963043 
	C667.805359,303.585999 669.714844,304.717712 673.293579,305.308990 
	C688.403687,307.805664 703.479431,310.545624 718.496582,313.551971 
	C723.924255,314.638550 725.283875,317.459106 723.818054,322.764557 
	C723.204895,324.983948 722.396606,327.322113 721.045349,329.135529 
	C714.532715,337.875580 707.291565,345.986816 697.078491,350.483582 
	C685.198730,355.714203 673.097595,360.440918 661.183044,365.595398 
	C659.428284,366.354553 657.476440,367.990692 656.801880,369.691467 
	C653.196106,378.783203 651.763123,388.293762 652.531189,398.079132 
	C654.106079,418.143372 663.011780,434.886688 677.173645,448.576691 
	C694.333435,465.164764 704.108215,485.014160 707.241821,508.502441 
	C710.463501,532.650330 709.194519,556.731140 706.417725,580.767517 
	C705.681396,587.141418 705.869812,592.654358 709.928284,598.075317 
	C713.396423,602.708008 716.063904,607.994568 718.684387,613.194153 
	C722.348572,620.464539 726.728516,627.621582 728.869934,635.361694 
	C733.708435,652.850525 732.543640,670.673584 729.066040,688.346069 
	C728.750427,689.949768 727.840271,691.436584 727.206238,692.977661 
	C726.710876,692.979004 726.215515,692.980347 725.720215,692.981628 
	C724.604553,690.116699 723.286255,687.312317 722.408936,684.376221 
	C718.879639,672.564453 715.063416,660.814697 712.155396,648.847107 
	C708.873474,635.340210 701.614563,624.640381 691.076111,615.221619 
	C690.847107,615.226318 690.618103,615.230957 690.389099,615.235596 
	C690.546143,615.534180 690.703247,615.832703 690.819519,616.923462 
	C703.470703,657.940979 709.856445,699.946716 711.230835,742.819641 
	C712.800293,791.780396 705.469360,839.150574 686.579712,884.476746 
	C676.725708,908.121948 665.143127,931.138428 659.602478,956.339355 
	C656.011353,972.673096 653.417725,989.226135 650.358154,1005.783569 
	C719.274963,1026.053833 775.589905,1062.393433 817.607544,1119.854126 
	C818.202148,1119.712280 818.826660,1119.578491 819.443115,1119.414062 
	C880.964966,1103.010010 942.718323,1101.245972 1004.706299,1116.623413 
	C1007.588257,1117.338379 1009.282654,1116.514282 1011.231567,1114.609375 
	C1045.901855,1080.722534 1077.038086,1043.893066 1103.828857,1003.453857 
	C1171.946899,900.633911 1207.175171,787.510925 1209.643921,664.236145 
	C1210.375977,627.691040 1207.860962,591.291016 1202.347168,555.155457 
	C1190.496826,477.492249 1166.062744,404.072571 1127.705933,335.380859 
	C1077.952515,246.279495 1010.902588,173.415405 923.285767,120.632355 
	C801.993774,47.562405 670.831421,21.918777 531.444824,46.713196 
	C385.622437,72.652428 266.674774,145.759399 175.305862,262.080414 
	C87.383865,374.013214 46.396595,502.977478 43.564632,644.457703 
	C42.989498,673.190369 44.443756,702.152649 47.596436,730.718323 
	C50.803379,759.775818 57.309441,788.466309 62.239361,817.339966 
	C62.846260,820.894348 64.675865,822.198853 67.991272,822.867126 
	C74.182983,824.115173 80.354347,825.568115 86.413177,827.347717 
	C96.095634,830.191650 105.679298,833.372009 115.247414,836.392029 
	C122.036278,824.394287 137.810379,782.388916 142.063492,765.735535 
	C153.472351,721.063049 155.519623,675.579041 153.969070,629.788025 
	C152.607880,589.589233 147.908875,549.772339 140.513092,510.229919 
	C137.398911,493.579529 136.829697,476.770782 141.931671,460.250244 
	C144.629257,451.515411 148.981888,443.923218 157.832184,440.186371 
	C168.384201,435.731018 179.395248,434.463989 190.604050,437.210388 
	C196.396515,438.629669 201.535461,441.143616 203.716461,447.541595 
	C204.139954,448.783905 206.187134,449.980652 207.667511,450.271576 
	C216.648041,452.036407 225.716873,453.356750 234.686584,455.170074 
	C242.941528,456.838898 244.799545,461.334045 239.101456,467.764160 
	C234.453018,473.009796 228.798264,477.720795 222.774597,481.295166 
	C216.103760,485.253540 208.589478,487.871033 201.274536,490.626556 
	C198.023666,491.851105 196.667099,493.781525 195.848221,496.948822 
	C190.791718,516.506226 196.454590,533.315125 209.680328,547.593018 
	C220.612854,559.395325 227.302917,572.732605 229.448334,588.672668 
	C231.576523,604.484558 231.951828,620.347046 229.480423,635.987610 
	C227.345566,649.498169 228.364243,661.776733 235.399399,673.734131 
	C243.931641,688.235901 243.292175,704.001709 240.145920,719.851318 
	C239.770828,721.740845 238.800079,723.512207 238.105438,725.338318 
	C236.276978,723.305054 235.468735,721.503113 234.952286,719.621033 
	C232.662659,711.276978 230.103409,702.984436 228.320511,694.530151 
	C226.556854,686.167114 222.172150,679.590942 216.160263,673.250427 
z"/>
<path fill="#324B32" opacity="1.000000" stroke="none" 
	d="
M691.347168,615.673218 
	C701.614563,624.640381 708.873474,635.340210 712.155396,648.847107 
	C715.063416,660.814697 718.879639,672.564453 722.408936,684.376221 
	C723.286255,687.312317 724.604553,690.116699 725.720215,692.981628 
	C726.215515,692.980347 726.710876,692.979004 727.206238,692.977661 
	C727.840271,691.436584 728.750427,689.949768 729.066040,688.346069 
	C732.543640,670.673584 733.708435,652.850525 728.869934,635.361694 
	C726.728516,627.621582 722.348572,620.464539 718.684387,613.194153 
	C716.063904,607.994568 713.396423,602.708008 709.928284,598.075317 
	C705.869812,592.654358 705.681396,587.141418 706.417725,580.767517 
	C709.194519,556.731140 710.463501,532.650330 707.241821,508.502441 
	C704.108215,485.014160 694.333435,465.164764 677.173645,448.576691 
	C663.011780,434.886688 654.106079,418.143372 652.531189,398.079132 
	C651.763123,388.293762 653.196106,378.783203 656.801880,369.691467 
	C657.476440,367.990692 659.428284,366.354553 661.183044,365.595398 
	C673.097595,360.440918 685.198730,355.714203 697.078491,350.483582 
	C707.291565,345.986816 714.532715,337.875580 721.045349,329.135529 
	C722.396606,327.322113 723.204895,324.983948 723.818054,322.764557 
	C725.283875,317.459106 723.924255,314.638550 718.496582,313.551971 
	C703.479431,310.545624 688.403687,307.805664 673.293579,305.308990 
	C669.714844,304.717712 667.805359,303.585999 666.775330,299.963043 
	C664.341614,291.402191 656.920166,288.501587 649.438110,286.592987 
	C633.392517,282.499756 617.432556,283.303986 601.738159,288.818420 
	C589.292969,293.191223 581.107056,301.874786 576.013489,313.774109 
	C568.948853,330.278290 566.971619,347.817535 568.878540,365.247742 
	C571.608459,390.199341 576.031982,414.978424 580.141785,439.763275 
	C586.169922,476.116913 590.806458,512.648621 591.982239,549.465820 
	C593.055725,583.079956 593.701782,616.768799 592.745789,650.373779 
	C590.790833,719.092651 577.110840,785.487427 550.477661,849.103394 
	C535.876953,883.978699 521.743103,919.055908 507.922699,954.247925 
	C503.006042,966.767456 499.636688,979.894714 495.388062,993.289856 
	C455.834473,992.319763 416.341705,996.430725 376.703156,1004.205750 
	C372.983429,993.168640 371.714966,982.020081 372.197021,970.711487 
	C372.747284,957.803101 375.921204,945.491028 380.735382,933.434753 
	C395.203491,897.202393 399.952850,859.557861 396.465576,820.733521 
	C394.567932,799.606506 391.115845,778.819824 385.051025,758.482727 
	C384.968414,758.205688 385.150818,757.849670 385.214355,757.504456 
	C400.856293,770.975037 399.859192,791.681335 407.825562,810.348145 
	C408.865906,807.379822 409.633209,805.865540 409.920868,804.265137 
	C412.741730,788.569702 413.239960,773.112793 404.820129,758.665588 
	C404.568665,758.234131 404.406128,757.743103 404.114624,757.343750 
	C395.839111,746.007019 396.285461,733.522217 398.240021,720.363892 
	C400.447571,705.502441 400.131714,690.503418 397.208344,675.625610 
	C394.856873,663.658447 389.120575,653.688049 381.112518,644.589417 
	C368.696808,630.482849 363.602295,614.259583 368.586365,595.517090 
	C369.441162,592.302734 371.001343,590.665588 374.096497,589.339661 
	C385.344574,584.521057 397.478302,581.088745 405.621857,570.916138 
	C406.349670,570.007019 407.212219,569.202942 407.912872,568.275146 
	C413.547577,560.813599 412.093597,556.576111 403.055115,554.852905 
	C394.876312,553.293640 386.643707,551.990967 378.402405,550.799316 
	C375.668732,550.403992 374.414612,549.290894 372.978394,546.785950 
	C371.228241,543.733398 368.271881,540.459900 365.098419,539.295532 
	C352.048004,534.507019 338.893890,535.344299 326.141571,540.829895 
	C319.030823,543.888794 314.439545,549.418274 311.770660,556.650208 
	C305.689636,573.128052 305.638245,590.116577 308.831512,606.959351 
	C315.889679,644.187073 320.781067,681.624634 322.555115,719.485352 
	C324.874390,768.982239 323.608490,818.265015 309.846344,866.215393 
	C303.200134,889.372253 293.951477,911.787048 285.751129,934.490845 
	C282.246704,944.193176 278.410126,953.775574 274.350189,964.391296 
	C257.052948,929.614563 231.878143,902.561768 200.610764,881.256226 
	C204.853775,867.684265 209.391541,854.510925 213.089462,841.105835 
	C227.962463,787.190552 228.397568,732.928528 216.323257,678.446045 
	C216.071701,677.310913 215.923294,676.152832 215.897461,674.474976 
	C216.068161,673.944397 216.340088,673.711487 216.340088,673.711487 
	C222.172150,679.590942 226.556854,686.167114 228.320511,694.530151 
	C230.103409,702.984436 232.662659,711.276978 234.952286,719.621033 
	C235.468735,721.503113 236.276978,723.305054 238.105438,725.338318 
	C238.800079,723.512207 239.770828,721.740845 240.145920,719.851318 
	C243.292175,704.001709 243.931641,688.235901 235.399399,673.734131 
	C228.364243,661.776733 227.345566,649.498169 229.480423,635.987610 
	C231.951828,620.347046 231.576523,604.484558 229.448334,588.672668 
	C227.302917,572.732605 220.612854,559.395325 209.680328,547.593018 
	C196.454590,533.315125 190.791718,516.506226 195.848221,496.948822 
	C196.667099,493.781525 198.023666,491.851105 201.274536,490.626556 
	C208.589478,487.871033 216.103760,485.253540 222.774597,481.295166 
	C228.798264,477.720795 234.453018,473.009796 239.101456,467.764160 
	C244.799545,461.334045 242.941528,456.838898 234.686584,455.170074 
	C225.716873,453.356750 216.648041,452.036407 207.667511,450.271576 
	C206.187134,449.980652 204.139954,448.783905 203.716461,447.541595 
	C201.535461,441.143616 196.396515,438.629669 190.604050,437.210388 
	C179.395248,434.463989 168.384201,435.731018 157.832184,440.186371 
	C148.981888,443.923218 144.629257,451.515411 141.931671,460.250244 
	C136.829697,476.770782 137.398911,493.579529 140.513092,510.229919 
	C147.908875,549.772339 152.607880,589.589233 153.969070,629.788025 
	C155.519623,675.579041 153.472351,721.063049 142.063492,765.735535 
	C137.810379,782.388916 122.036278,824.394287 115.247414,836.392029 
	C105.679298,833.372009 96.095634,830.191650 86.413177,827.347717 
	C80.354347,825.568115 74.182983,824.115173 67.991272,822.867126 
	C64.675865,822.198853 62.846260,820.894348 62.239361,817.339966 
	C57.309441,788.466309 50.803379,759.775818 47.596436,730.718323 
	C44.443756,702.152649 42.989498,673.190369 43.564632,644.457703 
	C46.396595,502.977478 87.383865,374.013214 175.305862,262.080414 
	C266.674774,145.759399 385.622437,72.652428 531.444824,46.713196 
	C670.831421,21.918777 801.993774,47.562405 923.285767,120.632355 
	C1010.902588,173.415405 1077.952515,246.279495 1127.705933,335.380859 
	C1166.062744,404.072571 1190.496826,477.492249 1202.347168,555.155457 
	C1207.860962,591.291016 1210.375977,627.691040 1209.643921,664.236145 
	C1207.175171,787.510925 1171.946899,900.633911 1103.828857,1003.453857 
	C1077.038086,1043.893066 1045.901855,1080.722534 1011.231567,1114.609375 
	C1009.282654,1116.514282 1007.588257,1117.338379 1004.706299,1116.623413 
	C942.718323,1101.245972 880.964966,1103.010010 819.443115,1119.414062 
	C818.826660,1119.578491 818.202148,1119.712280 817.607544,1119.854126 
	C775.589905,1062.393433 719.274963,1026.053833 650.358154,1005.783569 
	C653.417725,989.226135 656.011353,972.673096 659.602478,956.339355 
	C665.143127,931.138428 676.725708,908.121948 686.579712,884.476746 
	C705.469360,839.150574 712.800293,791.780396 711.230835,742.819641 
	C709.856445,699.946716 703.470703,657.940979 690.961304,616.412476 
	C691.103149,615.901550 691.347168,615.673218 691.347168,615.673218 
z"/>
<path fill="#324B32" opacity="1.000000" stroke="none" 
	d="
M215.933960,674.062866 
	C215.697754,673.630920 215.595764,673.080444 215.493774,672.530029 
	C215.715958,672.770142 215.938110,673.010254 216.250183,673.480957 
	C216.340088,673.711487 216.068161,673.944397 215.933960,674.062866 
z"/>
<path fill="#324B32" opacity="1.000000" stroke="none" 
	d="
M690.981689,616.016418 
	C690.703247,615.832703 690.546143,615.534180 690.389099,615.235596 
	C690.618103,615.230957 690.847107,615.226318 691.211670,615.447388 
	C691.347168,615.673218 691.103149,615.901550 690.981689,616.016418 
z"/>
</svg>